# This file uses centimeters as units for non-parametric coordinates.

mtllib closetDoorFrame.mtl
g default
v 37.168448 32.824768 -0.850190
v 37.168448 21.869673 -0.850190
v 37.168448 10.914595 -0.850190
v 37.168448 -0.020241 -0.809645
v 37.168448 46.237926 -0.850190
v 34.379540 -0.020241 -0.809645
v 34.379540 46.237926 -0.850190
v 60.134755 43.779826 -0.850190
v 60.134755 46.237926 -0.850190
v 47.979495 46.237926 -0.850190
v 54.057123 46.237926 -0.850190
v 41.901885 46.237926 -0.850190
v 57.095933 46.237926 -0.850190
v 60.134755 0.631763 -0.850190
v 60.134755 22.205794 -0.850190
v 60.134755 32.992813 -0.850190
v 60.134755 11.418779 -0.850190
v 34.379540 -0.020241 -0.013942
v 34.379540 10.914595 -0.054486
v 37.168448 -0.020241 -0.013942
v 37.168448 10.914595 -0.054486
v 34.379540 21.869673 -0.054486
v 37.168448 21.869673 -0.054486
v 34.379540 32.824768 -0.054486
v 37.168448 32.824768 -0.054486
v 34.379540 43.779826 -0.054486
v 34.379540 46.237926 -0.054486
v 37.168448 46.237926 -0.054486
v 41.901885 46.237926 -0.054486
v 47.979495 46.237926 -0.054486
v 54.057123 46.237926 -0.054486
v 57.095933 46.237926 -0.054486
v 60.134755 43.779826 -0.054486
v 60.134755 46.237926 -0.054486
v 60.134755 32.992813 -0.054486
v 60.134755 22.205794 -0.054486
v 60.134755 11.418779 -0.054486
v 60.134755 0.631763 -0.054486
v 37.168448 43.779826 -0.850190
v 37.168448 43.779826 -0.054486
v 41.901885 43.779826 -0.054486
v 47.979495 43.779826 -0.054486
v 54.057123 43.779826 -0.054486
v 57.095933 43.779826 -0.054486
v 57.095933 32.992813 -0.054486
v 57.095933 22.205794 -0.054486
v 57.095933 11.418779 -0.054486
v 57.095933 0.631763 -0.054486
v 57.095933 0.631763 -0.850190
vt 0.000000 0.936778
vt 1.000000 0.936778
vt 1.000000 1.000000
vt 0.000000 1.000000
vt 0.000000 0.936778
vt 1.000000 0.936778
vt 1.000000 1.000000
vt 0.000000 1.000000
vt 0.000000 0.936778
vt 1.000000 0.936778
vt 1.000000 1.000000
vt 0.000000 1.000000
vt 0.000000 0.936778
vt 1.000000 0.936778
vt 1.000000 1.000000
vt 0.000000 1.000000
vt 0.873556 0.250000
vt 0.873556 0.000000
vt 1.000000 0.000000
vt 1.000000 0.250000
vt 0.000000 0.000000
vt 1.000000 0.000000
vt 1.000000 0.250000
vt 0.000000 0.250000
vt 0.000000 0.500000
vt 1.000000 0.500000
vt 1.000000 0.750000
vt 0.000000 0.750000
vt 1.000000 0.875000
vt 0.000000 0.875000
vt 1.000000 1.000000
vt 0.000000 1.000000
vt 0.000000 0.000000
vt 1.000000 0.000000
vt 1.000000 0.250000
vt 0.000000 0.250000
vt 0.000000 0.500000
vt 1.000000 0.500000
vt 1.000000 0.750000
vt 0.000000 0.750000
vt 1.000000 1.000000
vt 0.000000 1.000000
vt 1.000000 0.936778
vt 1.000000 1.000000
vt 0.000000 1.000000
vt 1.000000 1.000000
vt 0.000000 1.000000
vt 1.000000 1.000000
vt 0.000000 1.000000
vt 1.000000 1.000000
vt 0.000000 1.000000
vt 1.000000 0.250000
vt 0.873556 0.250000
vt 0.000000 0.250000
vt 0.000000 0.000000
vt 0.000000 0.750000
vt 0.000000 0.500000
vt 0.000000 0.875000
vt 1.000000 1.000000
vt 0.000000 1.000000
vt 0.000000 0.250000
vt 0.000000 0.000000
vt 0.000000 0.750000
vt 0.000000 0.500000
vt 1.000000 1.000000
vt 0.000000 1.000000
vn 0.000000 0.001852 0.999998
vn 0.000000 0.003708 0.999993
vn 0.000000 0.003708 0.999993
vn 0.000000 0.001852 0.999998
vn 0.000000 0.000000 1.000000
vn 0.000000 0.000000 1.000000
vn 0.000000 0.000000 1.000000
vn 0.000000 0.000000 1.000000
vn 0.000000 0.000000 1.000000
vn 0.000000 0.000000 1.000000
vn 0.000000 0.000000 1.000000
vn 0.000000 0.000000 1.000000
vn 0.000000 0.000000 1.000000
vn 0.000000 0.000000 1.000000
vn 0.000000 0.000000 1.000000
vn 0.000000 0.000000 1.000000
vn 0.000000 0.000000 1.000000
vn 0.000000 0.000000 1.000000
vn 0.000000 0.000000 1.000000
vn 0.000000 0.000000 1.000000
vn 0.000000 0.000000 1.000000
vn 0.000000 0.000000 1.000000
vn 0.000000 0.000000 1.000000
vn 0.000000 0.000000 1.000000
vn 0.000000 0.000000 1.000000
vn 0.000000 0.000000 1.000000
vn 0.000000 0.000000 1.000000
vn 0.000000 0.000000 1.000000
vn 0.000000 0.000000 1.000000
vn 0.000000 0.000000 1.000000
vn 0.000000 -1.000000 0.000000
vn 0.000000 -1.000000 0.000000
vn 0.000000 -1.000000 0.000000
vn 0.000000 -1.000000 0.000000
vn 1.000000 0.000000 0.000000
vn 1.000000 0.000000 0.000000
vn 1.000000 0.000000 0.000000
vn 1.000000 0.000000 0.000000
vn 1.000000 0.000000 0.000000
vn 1.000000 0.000000 0.000000
vn 1.000000 0.000000 0.000000
vn 1.000000 0.000000 0.000000
vn 1.000000 0.000000 0.000000
vn 1.000000 0.000000 0.000000
vn 0.000000 1.000000 0.000000
vn 0.000000 1.000000 0.000000
vn 0.000000 1.000000 0.000000
vn 0.000000 1.000000 0.000000
vn 0.000000 1.000000 0.000000
vn 0.000000 1.000000 0.000000
vn 0.000000 1.000000 0.000000
vn 0.000000 1.000000 0.000000
vn 0.000000 1.000000 0.000000
vn 0.000000 1.000000 0.000000
vn 0.000000 1.000000 0.000000
vn 0.000000 1.000000 0.000000
vn 1.000000 0.000000 0.000000
vn 1.000000 0.000000 0.000000
vn 1.000000 0.000000 0.000000
vn 1.000000 0.000000 0.000000
vn 0.000000 1.000000 0.000000
vn 0.000000 1.000000 0.000000
vn 1.000000 0.000000 0.000000
vn 1.000000 0.000000 0.000000
vn 1.000000 0.000000 0.000000
vn 1.000000 0.000000 0.000000
vn 1.000000 0.000000 0.000000
vn 1.000000 0.000000 0.000000
vn 0.000000 -1.000000 0.000000
vn 0.000000 -1.000000 0.000000
vn 0.000000 -1.000000 0.000000
vn 0.000000 -1.000000 0.000000
vn 1.000000 0.000000 0.000000
vn 1.000000 0.000000 0.000000
s 1
g doorFrame wall closetWall
usemtl initialShadingGroup
f 19/1/1 18/2/2 20/3/3 21/4/4
f 22/5/5 19/6/1 21/7/4 23/8/6
f 24/9/7 22/10/5 23/11/6 25/12/8
f 26/13/9 24/14/7 25/15/8 40/16/10
f 27/17/11 26/18/9 40/19/10 28/20/12
f 28/21/12 40/22/10 41/23/13 29/24/14
f 30/25/15 42/26/16 43/27/17 31/28/18
f 31/28/18 43/27/17 44/29/19 32/30/20
f 29/24/14 41/23/13 42/26/16 30/25/15
f 32/30/20 44/29/19 33/31/21 34/32/22
f 33/33/21 44/34/19 45/35/23 35/36/24
f 36/37/25 46/38/26 47/39/27 37/40/28
f 35/36/24 45/35/23 46/38/26 36/37/25
f 37/40/28 47/39/27 48/41/29 38/42/30
s off
f 6/43/31 4/44/32 20/3/33 18/2/34
s 2
f 4/44/35 3/45/36 21/4/37 20/3/38
f 3/46/36 2/47/39 23/8/40 21/7/37
f 2/48/39 1/49/41 25/12/42 23/11/40
f 1/50/41 39/51/43 40/16/44 25/15/42
s 3
f 5/52/45 7/53/46 27/17/47 28/20/48
f 12/54/49 5/55/45 28/21/48 29/24/50
f 11/56/51 10/57/52 30/25/53 31/28/54
f 13/58/55 11/56/51 31/28/54 32/30/56
f 10/57/52 12/54/49 29/24/50 30/25/53
s 4
f 8/59/57 9/60/58 34/32/59 33/31/60
s 3
f 9/60/61 13/58/55 32/30/56 34/32/62
s 4
f 16/61/63 8/62/57 33/33/60 35/36/64
f 17/63/65 15/64/66 36/37/67 37/40/68
f 15/64/66 16/61/63 35/36/64 36/37/67
s off
f 49/65/69 14/66/70 38/42/71 48/41/72
s 4
f 14/66/73 17/63/65 37/40/68 38/42/74
