# This file uses centimeters as units for non-parametric coordinates.

mtllib screen.mtl
g default
v 12.142325 13.257243 -5.872132
v 12.142325 13.257243 10.141097
v 12.142325 4.755004 10.141097
v 12.142325 4.755004 -5.872132
v 12.142325 21.759524 -5.872132
v 12.142325 21.759524 10.141097
v 12.142325 13.257243 21.663303
v 12.142325 4.755004 21.663303
v 12.142325 21.759524 21.663303
v 12.142325 13.257243 -17.394345
v 12.142325 21.759524 -17.394345
v 12.142325 4.755004 -17.394345
vt 0.708333 0.038159
vt 0.791667 0.038159
vt 0.791667 0.125000
vt 0.708333 0.125000
vt 0.791667 0.211841
vt 0.708333 0.211841
vt 0.648371 0.125000
vt 0.648371 0.038159
vt 0.648371 0.211841
vt 0.851629 0.125000
vt 0.851629 0.211841
vt 0.851629 0.038159
vn 1.000000 0.000000 0.000000
vn 1.000000 0.000000 0.000000
vn 1.000000 0.000000 0.000000
vn 1.000000 0.000000 0.000000
vn 1.000000 0.000000 0.000000
vn 1.000000 0.000000 0.000000
vn 1.000000 0.000000 0.000000
vn 1.000000 0.000000 0.000000
vn 1.000000 0.000000 0.000000
vn 1.000000 0.000000 0.000000
vn 1.000000 0.000000 0.000000
vn 1.000000 0.000000 0.000000
s 1
g screen tv tv
usemtl blinn1SG
f 3/1/1 4/2/2 1/3/3 2/4/4
f 2/4/4 1/3/3 5/5/5 6/6/6
f 7/7/7 8/8/8 3/1/1 2/4/4
f 9/9/9 7/7/7 2/4/4 6/6/6
f 1/3/3 10/10/10 11/11/11 5/5/5
f 4/2/2 12/12/12 10/10/10 1/3/3
