# This file uses centimeters as units for non-parametric coordinates.

mtllib stick.mtl
g default
v -0.469330 -2.667559 0.139417
v -0.333333 -2.880112 0.139417
v -0.166667 -3.018753 0.139417
v 0.000000 -3.018753 0.139417
v 0.166667 -3.018753 0.139417
v 0.333333 -2.873709 0.139417
v 0.454608 -2.683577 0.139417
v -0.500000 -2.268215 0.139417
v -0.333333 -2.268215 0.139417
v -0.166667 -2.268215 0.139417
v 0.000000 -2.268215 0.139417
v 0.166667 -2.268215 0.139417
v 0.333333 -2.268215 0.139417
v 0.500000 -2.268215 0.139417
v -0.500000 -1.517677 0.139417
v -0.333333 -1.517677 0.139417
v -0.166667 -1.517677 0.139417
v 0.000000 -1.517677 0.139417
v 0.166667 -1.517677 0.139417
v 0.333333 -1.517677 0.139417
v 0.500000 -1.517677 0.139417
v -0.500000 -0.767139 0.139417
v -0.333333 -0.767139 0.139417
v -0.166667 -0.767139 0.139417
v 0.000000 -0.767139 0.139417
v 0.166667 -0.767139 0.139417
v 0.333333 -0.767139 0.139417
v 0.500000 -0.767139 0.139417
v -0.500000 -0.016600 0.139417
v -0.333333 -0.016600 0.139417
v -0.166667 -0.016600 0.139417
v 0.000000 -0.016600 0.139417
v 0.166667 -0.016600 0.139417
v 0.333333 -0.016600 0.139417
v 0.500000 -0.016600 0.139417
v -0.500000 0.733938 0.139417
v -0.333333 0.733938 0.139417
v -0.166667 0.733938 0.139417
v 0.000000 0.733938 0.139417
v 0.166667 0.733938 0.139417
v 0.333333 0.733938 0.139417
v 0.500000 0.733938 0.139417
v -0.500000 1.484475 0.139417
v -0.333333 1.484475 0.139417
v -0.166667 1.484475 0.139417
v 0.000000 1.484475 0.139417
v 0.166667 1.484475 0.139417
v 0.333333 1.484475 0.139417
v 0.500000 1.484475 0.139417
v -0.500000 1.484475 -0.070535
v 0.500000 1.484475 -0.070535
v -0.500000 1.484475 -0.280486
v -0.333333 1.484475 -0.280486
v -0.166667 1.484475 -0.280486
v 0.000000 1.484475 -0.280486
v 0.166667 1.484475 -0.280486
v 0.333333 1.484475 -0.280486
v 0.500000 1.484475 -0.280486
v -0.500000 0.733938 -0.280486
v -0.333333 0.733938 -0.280486
v -0.166667 0.733938 -0.280486
v 0.000000 0.733938 -0.280486
v 0.166667 0.733938 -0.280486
v 0.333333 0.733938 -0.280486
v 0.500000 0.733938 -0.280486
v -0.500000 -0.016600 -0.280486
v -0.333333 -0.016600 -0.280486
v -0.166667 -0.016600 -0.280486
v 0.000000 -0.016600 -0.280486
v 0.166667 -0.016600 -0.280486
v 0.333333 -0.016600 -0.280486
v 0.500000 -0.016600 -0.280486
v -0.500000 -0.767138 -0.280486
v -0.333333 -0.767138 -0.280486
v -0.166667 -0.767138 -0.280486
v 0.000000 -0.767138 -0.280486
v 0.166667 -0.767138 -0.280486
v 0.333333 -0.767138 -0.280486
v 0.500000 -0.767138 -0.280486
v -0.500000 -1.517676 -0.280486
v -0.333333 -1.517676 -0.280486
v -0.166667 -1.517676 -0.280486
v 0.000000 -1.517676 -0.280486
v 0.166667 -1.517676 -0.280486
v 0.333333 -1.517676 -0.280486
v 0.500000 -1.517676 -0.280486
v -0.500000 -2.268214 -0.280486
v -0.333333 -2.268214 -0.280486
v -0.166667 -2.268214 -0.280486
v 0.000000 -2.268214 -0.280486
v 0.166667 -2.268214 -0.280486
v 0.333333 -2.268214 -0.280486
v 0.500000 -2.268214 -0.280486
v -0.469330 -2.667558 -0.280486
v -0.333333 -2.880111 -0.280486
v -0.166667 -3.018752 -0.280486
v 0.000000 -3.018752 -0.280486
v 0.166667 -3.018752 -0.280486
v 0.333333 -2.873708 -0.280486
v 0.454608 -2.683576 -0.280486
v -0.469330 -2.667558 -0.070535
v -0.333333 -2.880111 -0.070535
v -0.166667 -3.018752 -0.070535
v 0.000000 -3.018752 -0.070535
v 0.166667 -3.018752 -0.070535
v 0.333333 -2.873708 -0.070535
v 0.454608 -2.683576 -0.070535
v 0.500000 -2.268215 -0.070535
v 0.500000 -1.517677 -0.070535
v 0.500000 -0.767139 -0.070535
v 0.500000 -0.016601 -0.070535
v 0.500000 0.733938 -0.070535
v -0.500000 -2.268215 -0.070535
v -0.500000 -1.517677 -0.070535
v -0.500000 -0.767139 -0.070535
v -0.500000 -0.016601 -0.070535
v -0.500000 0.733938 -0.070535
vt 0.375000 0.000000
vt 0.416667 0.000000
vt 0.458333 0.000000
vt 0.500000 0.000000
vt 0.541667 0.000000
vt 0.583333 0.000000
vt 0.625000 0.000000
vt 0.375000 0.041667
vt 0.416667 0.041667
vt 0.458333 0.041667
vt 0.500000 0.041667
vt 0.541667 0.041667
vt 0.583333 0.041667
vt 0.625000 0.041667
vt 0.375000 0.083333
vt 0.416667 0.083333
vt 0.458333 0.083333
vt 0.500000 0.083333
vt 0.541667 0.083333
vt 0.583333 0.083333
vt 0.625000 0.083333
vt 0.375000 0.125000
vt 0.416667 0.125000
vt 0.458333 0.125000
vt 0.500000 0.125000
vt 0.541667 0.125000
vt 0.583333 0.125000
vt 0.625000 0.125000
vt 0.375000 0.166667
vt 0.416667 0.166667
vt 0.458333 0.166667
vt 0.500000 0.166667
vt 0.541667 0.166667
vt 0.583333 0.166667
vt 0.625000 0.166667
vt 0.375000 0.208333
vt 0.416667 0.208333
vt 0.458333 0.208333
vt 0.500000 0.208333
vt 0.541667 0.208333
vt 0.583333 0.208333
vt 0.625000 0.208333
vt 0.375000 0.250000
vt 0.416667 0.250000
vt 0.458333 0.250000
vt 0.500000 0.250000
vt 0.541667 0.250000
vt 0.583333 0.250000
vt 0.625000 0.250000
vt 0.375000 0.500000
vt 0.416667 0.500000
vt 0.458333 0.500000
vt 0.500000 0.500000
vt 0.541667 0.500000
vt 0.583333 0.500000
vt 0.625000 0.500000
vt 0.375000 0.541667
vt 0.416667 0.541667
vt 0.458333 0.541667
vt 0.500000 0.541667
vt 0.541667 0.541667
vt 0.583333 0.541667
vt 0.625000 0.541667
vt 0.375000 0.583333
vt 0.416667 0.583333
vt 0.458333 0.583333
vt 0.500000 0.583333
vt 0.541667 0.583333
vt 0.583333 0.583333
vt 0.625000 0.583333
vt 0.375000 0.625000
vt 0.416667 0.625000
vt 0.458333 0.625000
vt 0.500000 0.625000
vt 0.541667 0.625000
vt 0.583333 0.625000
vt 0.625000 0.625000
vt 0.375000 0.666667
vt 0.416667 0.666667
vt 0.458333 0.666667
vt 0.500000 0.666667
vt 0.541667 0.666667
vt 0.583333 0.666667
vt 0.625000 0.666667
vt 0.375000 0.708333
vt 0.416667 0.708333
vt 0.458333 0.708333
vt 0.500000 0.708333
vt 0.541667 0.708333
vt 0.583333 0.708333
vt 0.625000 0.708333
vt 0.375000 0.750000
vt 0.416667 0.750000
vt 0.458333 0.750000
vt 0.500000 0.750000
vt 0.541667 0.750000
vt 0.583333 0.750000
vt 0.625000 0.750000
vt 0.375000 0.875000
vt 0.416667 0.875000
vt 0.458333 0.875000
vt 0.500000 0.875000
vt 0.541667 0.875000
vt 0.583333 0.875000
vt 0.625000 0.875000
vt 0.375000 1.000000
vt 0.416667 1.000000
vt 0.458333 1.000000
vt 0.500000 1.000000
vt 0.541667 1.000000
vt 0.583333 1.000000
vt 0.625000 1.000000
vt 0.875000 0.000000
vt 0.750000 0.000000
vt 0.875000 0.041667
vt 0.750000 0.041667
vt 0.875000 0.083333
vt 0.750000 0.083333
vt 0.875000 0.125000
vt 0.750000 0.125000
vt 0.875000 0.166667
vt 0.750000 0.166667
vt 0.875000 0.208333
vt 0.750000 0.208333
vt 0.875000 0.250000
vt 0.750000 0.250000
vt 0.125000 0.000000
vt 0.250000 0.000000
vt 0.125000 0.041667
vt 0.250000 0.041667
vt 0.125000 0.083333
vt 0.250000 0.083333
vt 0.125000 0.125000
vt 0.250000 0.125000
vt 0.125000 0.166667
vt 0.250000 0.166667
vt 0.125000 0.208333
vt 0.250000 0.208333
vt 0.125000 0.250000
vt 0.250000 0.250000
vn 0.000006 0.000000 1.000000
vn -0.000003 0.000000 1.000000
vn 0.000000 0.000000 1.000000
vn 0.000002 0.000000 1.000000
vn -0.000001 0.000000 1.000000
vn -0.000001 0.000000 1.000000
vn 0.000000 0.000000 1.000000
vn 0.000000 0.000000 1.000000
vn 0.000001 0.000000 1.000000
vn 0.000001 0.000000 1.000000
vn 0.000003 0.000000 1.000000
vn 0.000000 0.000000 1.000000
vn -0.000007 0.000000 1.000000
vn -0.000002 0.000000 1.000000
vn 0.000000 0.000000 1.000000
vn 0.000000 0.000000 1.000000
vn 0.000000 0.000000 1.000000
vn 0.000000 0.000000 1.000000
vn 0.000000 0.000000 1.000000
vn 0.000000 0.000000 1.000000
vn 0.000000 0.000000 1.000000
vn 0.000000 0.000000 1.000000
vn 0.000000 0.000000 1.000000
vn 0.000000 0.000000 1.000000
vn 0.000000 0.000000 1.000000
vn 0.000000 0.000000 1.000000
vn 0.000000 0.000000 1.000000
vn 0.000000 0.000000 1.000000
vn 0.000000 0.000000 1.000000
vn 0.000000 0.000000 1.000000
vn 0.000000 0.000000 1.000000
vn 0.000000 0.000000 1.000000
vn 0.000000 0.000000 1.000000
vn 0.000000 0.000000 1.000000
vn 0.000000 0.000000 1.000000
vn 0.000000 0.000000 1.000000
vn 0.000000 0.000000 1.000000
vn 0.000000 0.000000 1.000000
vn 0.000000 0.000000 1.000000
vn 0.000000 0.000000 1.000000
vn 0.000000 0.000000 1.000000
vn 0.000000 0.000000 1.000000
vn 0.000000 0.000000 1.000000
vn 0.000000 0.000000 1.000000
vn 0.000000 0.000000 1.000000
vn 0.000000 0.000000 1.000000
vn 0.000000 0.000000 1.000000
vn 0.000000 0.000000 1.000000
vn 0.000000 0.000000 1.000000
vn 0.000000 0.000000 -1.000000
vn 0.000000 0.000000 -1.000000
vn 0.000000 0.000000 -1.000000
vn 0.000000 0.000000 -1.000000
vn 0.000000 0.000000 -1.000000
vn 0.000000 0.000000 -1.000000
vn 0.000000 0.000000 -1.000000
vn 0.000000 0.000000 -1.000000
vn 0.000000 0.000000 -1.000000
vn 0.000000 0.000000 -1.000000
vn 0.000000 0.000000 -1.000000
vn 0.000000 0.000000 -1.000000
vn 0.000000 0.000000 -1.000000
vn 0.000000 0.000000 -1.000000
vn 0.000000 0.000000 -1.000000
vn 0.000000 0.000000 -1.000000
vn 0.000000 0.000000 -1.000000
vn 0.000000 0.000000 -1.000000
vn 0.000000 0.000000 -1.000000
vn 0.000000 0.000000 -1.000000
vn 0.000000 0.000000 -1.000000
vn 0.000000 0.000000 -1.000000
vn 0.000000 0.000000 -1.000000
vn 0.000000 0.000000 -1.000000
vn 0.000000 0.000000 -1.000000
vn 0.000000 0.000000 -1.000000
vn 0.000000 0.000000 -1.000000
vn 0.000000 0.000000 -1.000000
vn 0.000000 0.000000 -1.000000
vn 0.000000 0.000000 -1.000000
vn 0.000000 0.000000 -1.000000
vn 0.000000 0.000000 -1.000000
vn 0.000000 0.000000 -1.000000
vn 0.000000 0.000000 -1.000000
vn 0.000000 0.000000 -1.000000
vn 0.000000 0.000000 -1.000000
vn 0.000000 0.000000 -1.000000
vn 0.000000 0.000000 -1.000000
vn 0.000000 0.000000 -1.000000
vn 0.000000 0.000000 -1.000000
vn 0.000000 0.000000 -1.000000
vn 0.000000 0.000000 -1.000000
vn 0.000000 0.000000 -1.000000
vn 0.000000 0.000000 -1.000000
vn 0.000000 0.000000 -1.000000
vn 0.000000 0.000000 -1.000000
vn 0.000000 0.000000 -1.000000
vn 0.000000 0.000000 -1.000000
vn 0.000000 0.000000 -1.000000
vn -0.842339 -0.538949 0.000000
vn -0.757506 -0.652828 0.000000
vn -0.757506 -0.652828 -0.000002
vn -0.842339 -0.538949 -0.000001
vn -0.384030 -0.923321 0.000000
vn -0.384030 -0.923321 -0.000002
vn 0.000000 -1.000000 0.000000
vn 0.000000 -1.000000 -0.000003
vn 0.398994 -0.916954 0.000000
vn 0.398995 -0.916953 -0.000002
vn 0.758531 -0.651637 0.000000
vn 0.758532 -0.651636 -0.000001
vn 0.843096 -0.537764 0.000000
vn 0.843096 -0.537763 -0.000001
vn -0.757506 -0.652828 -0.000003
vn -0.842339 -0.538948 -0.000002
vn -0.384030 -0.923321 -0.000005
vn 0.000000 -1.000000 -0.000005
vn 0.398995 -0.916953 -0.000004
vn 0.758532 -0.651636 -0.000003
vn 0.843096 -0.537763 -0.000003
vn 0.994082 -0.108636 -0.000000
vn 0.994082 -0.108636 0.000000
vn 0.999243 -0.038903 0.000000
vn 0.999243 -0.038903 -0.000000
vn 0.994082 -0.108636 -0.000001
vn 0.999243 -0.038903 -0.000000
vn 1.000000 0.000000 0.000000
vn 1.000000 0.000000 0.000000
vn 1.000000 0.000000 -0.000000
vn 1.000000 0.000000 0.000000
vn 1.000000 0.000000 0.000000
vn 1.000000 0.000000 -0.000000
vn 1.000000 0.000000 0.000000
vn 1.000000 0.000000 0.000000
vn 1.000000 0.000000 -0.000000
vn 1.000000 -0.000000 0.000000
vn 1.000000 -0.000000 0.000000
vn 1.000000 -0.000000 -0.000000
vn 1.000000 -0.000000 0.000000
vn 1.000000 -0.000000 0.000000
vn 1.000000 -0.000000 -0.000000
vn -0.997064 -0.076576 -0.000000
vn -0.997064 -0.076576 -0.000000
vn -0.999645 -0.026663 -0.000000
vn -0.999645 -0.026663 -0.000000
vn -0.997064 -0.076576 0.000000
vn -0.999645 -0.026663 0.000000
vn -1.000000 0.000000 0.000000
vn -1.000000 0.000000 0.000000
vn -1.000000 0.000000 0.000000
vn -1.000000 0.000000 0.000000
vn -1.000000 0.000000 0.000000
vn -1.000000 0.000000 0.000000
vn -1.000000 0.000000 0.000000
vn -1.000000 0.000000 0.000000
vn -1.000000 0.000000 0.000000
vn -1.000000 0.000000 0.000000
vn -1.000000 0.000000 0.000000
vn -1.000000 0.000000 0.000000
vn -1.000000 0.000000 0.000000
vn -1.000000 0.000000 0.000000
vn -1.000000 0.000000 0.000000
s 1
g stick
usemtl initialShadingGroup
f 1/1/1 2/2/2 9/9/3 8/8/4
f 2/2/2 3/3/5 10/10/6 9/9/3
f 3/3/5 4/4/7 11/11/8 10/10/6
f 4/4/7 5/5/9 12/12/10 11/11/8
f 5/5/9 6/6/11 13/13/12 12/12/10
f 6/6/11 7/7/13 14/14/14 13/13/12
f 8/8/4 9/9/3 16/16/15 15/15/16
f 9/9/3 10/10/6 17/17/17 16/16/15
f 10/10/6 11/11/8 18/18/18 17/17/17
f 11/11/8 12/12/10 19/19/19 18/18/18
f 12/12/10 13/13/12 20/20/20 19/19/19
f 13/13/12 14/14/14 21/21/21 20/20/20
f 15/15/16 16/16/15 23/23/22 22/22/23
f 16/16/15 17/17/17 24/24/24 23/23/22
f 17/17/17 18/18/18 25/25/25 24/24/24
f 18/18/18 19/19/19 26/26/26 25/25/25
f 19/19/19 20/20/20 27/27/27 26/26/26
f 20/20/20 21/21/21 28/28/28 27/27/27
f 22/22/23 23/23/22 30/30/29 29/29/30
f 23/23/22 24/24/24 31/31/31 30/30/29
f 24/24/24 25/25/25 32/32/32 31/31/31
f 25/25/25 26/26/26 33/33/33 32/32/32
f 26/26/26 27/27/27 34/34/34 33/33/33
f 27/27/27 28/28/28 35/35/35 34/34/34
f 29/29/30 30/30/29 37/37/36 36/36/37
f 30/30/29 31/31/31 38/38/38 37/37/36
f 31/31/31 32/32/32 39/39/39 38/38/38
f 32/32/32 33/33/33 40/40/40 39/39/39
f 33/33/33 34/34/34 41/41/41 40/40/40
f 34/34/34 35/35/35 42/42/42 41/41/41
f 36/36/37 37/37/36 44/44/43 43/43/44
f 37/37/36 38/38/38 45/45/45 44/44/43
f 38/38/38 39/39/39 46/46/46 45/45/45
f 39/39/39 40/40/40 47/47/47 46/46/46
f 40/40/40 41/41/41 48/48/48 47/47/47
f 41/41/41 42/42/42 49/49/49 48/48/48
s 2
f 52/50/50 53/51/51 60/58/52 59/57/53
f 53/51/51 54/52/54 61/59/55 60/58/52
f 54/52/54 55/53/56 62/60/57 61/59/55
f 55/53/56 56/54/58 63/61/59 62/60/57
f 56/54/58 57/55/60 64/62/61 63/61/59
f 57/55/60 58/56/62 65/63/63 64/62/61
f 59/57/53 60/58/52 67/65/64 66/64/65
f 60/58/52 61/59/55 68/66/66 67/65/64
f 61/59/55 62/60/57 69/67/67 68/66/66
f 62/60/57 63/61/59 70/68/68 69/67/67
f 63/61/59 64/62/61 71/69/69 70/68/68
f 64/62/61 65/63/63 72/70/70 71/69/69
f 66/64/65 67/65/64 74/72/71 73/71/72
f 67/65/64 68/66/66 75/73/73 74/72/71
f 68/66/66 69/67/67 76/74/74 75/73/73
f 69/67/67 70/68/68 77/75/75 76/74/74
f 70/68/68 71/69/69 78/76/76 77/75/75
f 71/69/69 72/70/70 79/77/77 78/76/76
f 73/71/72 74/72/71 81/79/78 80/78/79
f 74/72/71 75/73/73 82/80/80 81/79/78
f 75/73/73 76/74/74 83/81/81 82/80/80
f 76/74/74 77/75/75 84/82/82 83/81/81
f 77/75/75 78/76/76 85/83/83 84/82/82
f 78/76/76 79/77/77 86/84/84 85/83/83
f 80/78/79 81/79/78 88/86/85 87/85/86
f 81/79/78 82/80/80 89/87/87 88/86/85
f 82/80/80 83/81/81 90/88/88 89/87/87
f 83/81/81 84/82/82 91/89/89 90/88/88
f 84/82/82 85/83/83 92/90/90 91/89/89
f 85/83/83 86/84/84 93/91/91 92/90/90
f 87/85/86 88/86/85 95/93/92 94/92/93
f 88/86/85 89/87/87 96/94/94 95/93/92
f 89/87/87 90/88/88 97/95/95 96/94/94
f 90/88/88 91/89/89 98/96/96 97/95/95
f 91/89/89 92/90/90 99/97/97 98/96/96
f 92/90/90 93/91/91 100/98/98 99/97/97
s 3
f 94/92/99 95/93/100 102/100/101 101/99/102
f 95/93/100 96/94/103 103/101/104 102/100/101
f 96/94/103 97/95/105 104/102/106 103/101/104
f 97/95/105 98/96/107 105/103/108 104/102/106
f 98/96/107 99/97/109 106/104/110 105/103/108
f 99/97/109 100/98/111 107/105/112 106/104/110
f 101/99/102 102/100/101 2/107/113 1/106/114
f 102/100/101 103/101/104 3/108/115 2/107/113
f 103/101/104 104/102/106 4/109/116 3/108/115
f 104/102/106 105/103/108 5/110/117 4/109/116
f 105/103/108 106/104/110 6/111/118 5/110/117
f 106/104/110 107/105/112 7/112/119 6/111/118
s 4
f 107/114/120 100/113/121 93/115/122 108/116/123
f 7/7/124 107/114/120 108/116/123 14/14/125
f 108/116/123 93/115/122 86/117/126 109/118/127
f 14/14/125 108/116/123 109/118/127 21/21/128
f 109/118/127 86/117/126 79/119/129 110/120/130
f 21/21/128 109/118/127 110/120/130 28/28/131
f 110/120/130 79/119/129 72/121/132 111/122/133
f 28/28/131 110/120/130 111/122/133 35/35/134
f 111/122/133 72/121/132 65/123/135 112/124/136
f 35/35/134 111/122/133 112/124/136 42/42/137
f 112/124/136 65/123/135 58/125/138 51/126/139
f 42/42/137 112/124/136 51/126/139 49/49/140
s 5
f 94/127/141 101/128/142 113/130/143 87/129/144
f 101/128/142 1/1/145 8/8/146 113/130/143
f 87/129/144 113/130/143 114/132/147 80/131/148
f 113/130/143 8/8/146 15/15/149 114/132/147
f 80/131/148 114/132/147 115/134/150 73/133/151
f 114/132/147 15/15/149 22/22/152 115/134/150
f 73/133/151 115/134/150 116/136/153 66/135/154
f 115/134/150 22/22/152 29/29/155 116/136/153
f 66/135/154 116/136/153 117/138/156 59/137/157
f 116/136/153 29/29/155 36/36/158 117/138/156
f 59/137/157 117/138/156 50/140/159 52/139/160
f 117/138/156 36/36/158 43/43/161 50/140/159
